<svg width="34" height="35" viewBox="0 0 34 35" fill="none" xmlns="http://www.w3.org/2000/svg">
<mask id="mask0_5_1778" style="mask-type:alpha" maskUnits="userSpaceOnUse" x="0" y="0" width="34" height="35">
<path d="M17 34.5C26.3888 34.5 34 26.8888 34 17.5C34 8.11116 26.3888 0.5 17 0.5C7.61116 0.5 0 8.11116 0 17.5C0 26.8888 7.61116 34.5 17 34.5Z" fill="white"/>
</mask>
<g mask="url(#mask0_5_1778)">
<path d="M37.9667 0.5H-3.96663C-4.90551 0.5 -5.66663 1.26112 -5.66663 2.2V32.8C-5.66663 33.7389 -4.90551 34.5 -3.96663 34.5H37.9667C38.9056 34.5 39.6667 33.7389 39.6667 32.8V2.2C39.6667 1.26112 38.9056 0.5 37.9667 0.5Z" fill="black"/>
<mask id="mask1_5_1778" style="mask-type:alpha" maskUnits="userSpaceOnUse" x="-6" y="0" width="46" height="35">
<path d="M37.9667 0.5H-3.96663C-4.90551 0.5 -5.66663 1.26112 -5.66663 2.2V32.8C-5.66663 33.7389 -4.90551 34.5 -3.96663 34.5H37.9667C38.9056 34.5 39.6667 33.7389 39.6667 32.8V2.2C39.6667 1.26112 38.9056 0.5 37.9667 0.5Z" fill="white"/>
</mask>
<g mask="url(#mask1_5_1778)">
<mask id="mask2_5_1778" style="mask-type:alpha" maskUnits="userSpaceOnUse" x="-6" y="0" width="46" height="35">
<path d="M39.6667 0.5H-5.66663V34.5H39.6667V0.5Z" fill="white"/>
</mask>
<g mask="url(#mask2_5_1778)">
<path d="M39.6667 0.5H-5.66663V34.5H39.6667V0.5Z" fill="#009933"/>
<mask id="mask3_5_1778" style="mask-type:alpha" maskUnits="userSpaceOnUse" x="-6" y="0" width="46" height="35">
<path d="M39.6667 0.5H-5.66663V34.5H39.6667V0.5Z" fill="white"/>
</mask>
<g mask="url(#mask3_5_1778)">
<path d="M16.8963 5.74744L34.1823 17.794L16.6612 29.076L-0.27063 17.5605L16.8963 5.74744Z" fill="black"/>
<path fill-rule="evenodd" clip-rule="evenodd" d="M16.8963 5.74744L34.1823 17.794L16.6612 29.076L-0.27063 17.5605L16.8963 5.74744Z" fill="#FFD221"/>
<path fill-rule="evenodd" clip-rule="evenodd" d="M16.8963 5.74744L34.1823 17.794L16.6612 29.076L-0.27063 17.5605L16.8963 5.74744Z" fill="url(#paint0_linear_5_1778)"/>
<path d="M17.0001 24.8667C20.9121 24.8667 24.0834 21.6954 24.0834 17.7834C24.0834 13.8714 20.9121 10.7001 17.0001 10.7001C13.0881 10.7001 9.91675 13.8714 9.91675 17.7834C9.91675 21.6954 13.0881 24.8667 17.0001 24.8667Z" fill="#2E42A5"/>
<mask id="mask4_5_1778" style="mask-type:alpha" maskUnits="userSpaceOnUse" x="9" y="10" width="16" height="15">
<path d="M17.0001 24.8667C20.9121 24.8667 24.0834 21.6954 24.0834 17.7834C24.0834 13.8714 20.9121 10.7001 17.0001 10.7001C13.0881 10.7001 9.91675 13.8714 9.91675 17.7834C9.91675 21.6954 13.0881 24.8667 17.0001 24.8667Z" fill="white"/>
</mask>
<g mask="url(#mask4_5_1778)">
<path d="M14.7051 21.1409L14.3887 21.3072L14.4491 20.9549L14.1931 20.7054L14.5469 20.6539L14.7051 20.3334L14.8633 20.6539L15.2171 20.7054L14.9611 20.9549L15.0215 21.3072L14.7051 21.1409Z" fill="#F7FCFF"/>
</g>
<mask id="mask5_5_1778" style="mask-type:alpha" maskUnits="userSpaceOnUse" x="9" y="10" width="16" height="15">
<path d="M17.0001 24.8667C20.9121 24.8667 24.0834 21.6954 24.0834 17.7834C24.0834 13.8714 20.9121 10.7001 17.0001 10.7001C13.0881 10.7001 9.91675 13.8714 9.91675 17.7834C9.91675 21.6954 13.0881 24.8667 17.0001 24.8667Z" fill="white"/>
</mask>
<g mask="url(#mask5_5_1778)">
<path d="M17.5385 21.1409L17.222 21.3072L17.2825 20.9549L17.0265 20.7054L17.3803 20.6539L17.5385 20.3334L17.6967 20.6539L18.0505 20.7054L17.7945 20.9549L17.8549 21.3072L17.5385 21.1409Z" fill="#F7FCFF"/>
</g>
<mask id="mask6_5_1778" style="mask-type:alpha" maskUnits="userSpaceOnUse" x="9" y="10" width="16" height="15">
<path d="M17.0001 24.8667C20.9121 24.8667 24.0834 21.6954 24.0834 17.7834C24.0834 13.8714 20.9121 10.7001 17.0001 10.7001C13.0881 10.7001 9.91675 13.8714 9.91675 17.7834C9.91675 21.6954 13.0881 24.8667 17.0001 24.8667Z" fill="white"/>
</mask>
<g mask="url(#mask6_5_1778)">
<path d="M17.5385 22.8409L17.222 23.0073L17.2825 22.655L17.0265 22.4054L17.3803 22.354L17.5385 22.0334L17.6967 22.354L18.0505 22.4054L17.7945 22.655L17.8549 23.0073L17.5385 22.8409Z" fill="#F7FCFF"/>
</g>
<mask id="mask7_5_1778" style="mask-type:alpha" maskUnits="userSpaceOnUse" x="9" y="10" width="16" height="15">
<path d="M17.0001 24.8667C20.9121 24.8667 24.0834 21.6954 24.0834 17.7834C24.0834 13.8714 20.9121 10.7001 17.0001 10.7001C13.0881 10.7001 9.91675 13.8714 9.91675 17.7834C9.91675 21.6954 13.0881 24.8667 17.0001 24.8667Z" fill="white"/>
</mask>
<g mask="url(#mask7_5_1778)">
<path d="M16.1217 16.8909L15.8053 17.0572L15.8657 16.7049L15.6097 16.4554L15.9635 16.4039L16.1217 16.0834L16.2799 16.4039L16.6337 16.4554L16.3777 16.7049L16.4382 17.0572L16.1217 16.8909Z" fill="#F7FCFF"/>
</g>
<mask id="mask8_5_1778" style="mask-type:alpha" maskUnits="userSpaceOnUse" x="9" y="10" width="16" height="15">
<path d="M17.0001 24.8667C20.9121 24.8667 24.0834 21.6954 24.0834 17.7834C24.0834 13.8714 20.9121 10.7001 17.0001 10.7001C13.0881 10.7001 9.91675 13.8714 9.91675 17.7834C9.91675 21.6954 13.0881 24.8667 17.0001 24.8667Z" fill="white"/>
</mask>
<g mask="url(#mask8_5_1778)">
<path d="M16.1217 19.7242L15.8053 19.8906L15.8657 19.5383L15.6097 19.2887L15.9635 19.2373L16.1217 18.9167L16.2799 19.2373L16.6337 19.2887L16.3777 19.5383L16.4382 19.8906L16.1217 19.7242Z" fill="#F7FCFF"/>
</g>
<mask id="mask9_5_1778" style="mask-type:alpha" maskUnits="userSpaceOnUse" x="9" y="10" width="16" height="15">
<path d="M17.0001 24.8667C20.9121 24.8667 24.0834 21.6954 24.0834 17.7834C24.0834 13.8714 20.9121 10.7001 17.0001 10.7001C13.0881 10.7001 9.91675 13.8714 9.91675 17.7834C9.91675 21.6954 13.0881 24.8667 17.0001 24.8667Z" fill="white"/>
</mask>
<g mask="url(#mask9_5_1778)">
<path d="M14.1383 18.3075L13.8219 18.4739L13.8823 18.1215L13.6263 17.872L13.9801 17.8206L14.1383 17.5L14.2965 17.8206L14.6503 17.872L14.3943 18.1215L14.4548 18.4739L14.1383 18.3075Z" fill="#F7FCFF"/>
</g>
<mask id="mask10_5_1778" style="mask-type:alpha" maskUnits="userSpaceOnUse" x="9" y="10" width="16" height="15">
<path d="M17.0001 24.8667C20.9121 24.8667 24.0834 21.6954 24.0834 17.7834C24.0834 13.8714 20.9121 10.7001 17.0001 10.7001C13.0881 10.7001 9.91675 13.8714 9.91675 17.7834C9.91675 21.6954 13.0881 24.8667 17.0001 24.8667Z" fill="white"/>
</mask>
<g mask="url(#mask10_5_1778)">
<path d="M12.1551 19.4409L11.8386 19.6073L11.8991 19.2549L11.6431 19.0054L11.9968 18.954L12.1551 18.6334L12.3133 18.954L12.667 19.0054L12.411 19.2549L12.4715 19.6073L12.1551 19.4409Z" fill="#F7FCFF"/>
</g>
<mask id="mask11_5_1778" style="mask-type:alpha" maskUnits="userSpaceOnUse" x="9" y="10" width="16" height="15">
<path d="M17.0001 24.8667C20.9121 24.8667 24.0834 21.6954 24.0834 17.7834C24.0834 13.8714 20.9121 10.7001 17.0001 10.7001C13.0881 10.7001 9.91675 13.8714 9.91675 17.7834C9.91675 21.6954 13.0881 24.8667 17.0001 24.8667Z" fill="white"/>
</mask>
<g mask="url(#mask11_5_1778)">
<path d="M18.6718 14.6243L18.3554 14.7906L18.4158 14.4383L18.1598 14.1888L18.5136 14.1373L18.6718 13.8168L18.83 14.1373L19.1838 14.1888L18.9278 14.4383L18.9882 14.7906L18.6718 14.6243Z" fill="#F7FCFF"/>
</g>
<mask id="mask12_5_1778" style="mask-type:alpha" maskUnits="userSpaceOnUse" x="9" y="10" width="16" height="15">
<path d="M17.0001 24.8667C20.9121 24.8667 24.0834 21.6954 24.0834 17.7834C24.0834 13.8714 20.9121 10.7001 17.0001 10.7001C13.0881 10.7001 9.91675 13.8714 9.91675 17.7834C9.91675 21.6954 13.0881 24.8667 17.0001 24.8667Z" fill="white"/>
</mask>
<g mask="url(#mask12_5_1778)">
<path d="M8.39355 16.0793L8.6066 13.254C15.4037 13.7666 20.7685 16.0014 24.6334 19.9769L22.6019 21.952C19.252 18.5063 14.5384 16.5427 8.39355 16.0793Z" fill="#F7FCFF"/>
</g>
<mask id="mask13_5_1778" style="mask-type:alpha" maskUnits="userSpaceOnUse" x="9" y="10" width="16" height="15">
<path d="M17.0001 24.8667C20.9121 24.8667 24.0834 21.6954 24.0834 17.7834C24.0834 13.8714 20.9121 10.7001 17.0001 10.7001C13.0881 10.7001 9.91675 13.8714 9.91675 17.7834C9.91675 21.6954 13.0881 24.8667 17.0001 24.8667Z" fill="white"/>
</mask>
<g mask="url(#mask13_5_1778)">
<path d="M11.7434 15.5206L11.8164 14.816C16.1981 15.2699 19.9564 16.9482 23.08 19.8473L22.5981 20.3665C19.5882 17.5729 15.9737 15.9588 11.7434 15.5206Z" fill="#009933"/>
</g>
</g>
</g>
</g>
<mask id="mask14_5_1778" style="mask-type:alpha" maskUnits="userSpaceOnUse" x="-6" y="0" width="46" height="35">
<path d="M37.9667 0.5H-3.96663C-4.90551 0.5 -5.66663 1.26112 -5.66663 2.2V32.8C-5.66663 33.7389 -4.90551 34.5 -3.96663 34.5H37.9667C38.9056 34.5 39.6667 33.7389 39.6667 32.8V2.2C39.6667 1.26112 38.9056 0.5 37.9667 0.5Z" fill="white"/>
</mask>
<g mask="url(#mask14_5_1778)">
<path d="M37.2584 1.20837H-3.25825C-4.19714 1.20837 -4.95825 1.96949 -4.95825 2.90837V32.0917C-4.95825 33.0306 -4.19714 33.7917 -3.25825 33.7917H37.2584C38.1973 33.7917 38.9584 33.0306 38.9584 32.0917V2.90837C38.9584 1.96949 38.1973 1.20837 37.2584 1.20837Z" stroke="black" stroke-opacity="0.1"/>
</g>
</g>
<defs>
<linearGradient id="paint0_linear_5_1778" x1="16.9558" y1="29.076" x2="16.9558" y2="5.74744" gradientUnits="userSpaceOnUse">
<stop stop-color="#FFC600"/>
<stop offset="1" stop-color="#FFDE42"/>
</linearGradient>
</defs>
</svg>
